<svg xmlns="http://www.w3.org/2000/svg" width="829" height="723" viewBox="0 0 829 723" role="img" aria-labelledby="t d">
<title id="t">gh-smi — live GitHub telemetry for FriendyKiran</title>
<desc id="d">nvidia-smi style panel: 4 contributions in the last year, 2 active days, 1-day streak, 9 public repos. Updated Mon, 05 Oct 2026 05:15:16 UTC.</desc>
<defs><style>
text { font-family: 'JetBrains Mono', 'SF Mono', Consolas, 'Liberation Mono', 'Courier New', monospace; font-size: 13.5px; white-space: pre; }
.ln { animation: type .35s steps(6) both; }
@keyframes type { from { opacity: 0; } to { opacity: 1; } }
.bar { transform-box: fill-box; transform-origin: bottom; animation: grow .8s cubic-bezier(.2,.8,.2,1) both; }
@keyframes grow { from { transform: scaleY(0); } to { transform: scaleY(1); } }
@media (prefers-reduced-motion: reduce) { * { animation: none !important; } }
</style></defs>
<rect width="829" height="723" rx="18" fill="#f7fafc" stroke="#d8e1eb"/>
<text x="28" y="34" fill="#475569"><tspan fill="#047857">friendykiran@github</tspan>:<tspan fill="#0079a3">~</tspan>$ watch -n 86400 gh-smi</text>
<text x="28" y="60" textLength="772.8" lengthAdjust="spacingAndGlyphs" fill="#94a3b8" style="animation-delay:0.00s" class="ln">Mon, 05 Oct 2026 05:15:16 UTC                                                               </text>
<text x="28" y="81" textLength="772.8" lengthAdjust="spacingAndGlyphs" fill="#475569" style="animation-delay:0.04s" class="ln">+------------------------------------------------------------------------------------------+</text>
<text x="28" y="102" textLength="772.8" lengthAdjust="spacingAndGlyphs" fill="#0f172a" style="animation-delay:0.08s" class="ln">| GH-SMI 2.0              Driver Version: FriendyKiran     CUDA Version: coffee 12.4       |</text>
<text x="28" y="123" textLength="772.8" lengthAdjust="spacingAndGlyphs" fill="#475569" style="animation-delay:0.12s" class="ln">+-----------------------------------------+------------------------+-----------------------+</text>
<text x="28" y="144" textLength="772.8" lengthAdjust="spacingAndGlyphs" fill="#475569" style="animation-delay:0.16s" class="ln">| GPU  Name                Persistence-M  | Bus-Id          Disp.A | Volatile Uncorr. ECC  |</text>
<text x="28" y="165" textLength="772.8" lengthAdjust="spacingAndGlyphs" fill="#475569" style="animation-delay:0.20s" class="ln">| Fan  Temp   Perf         Pwr:Usage/Cap  |           Memory-Usage | GPU-Util  Compute M.  |</text>
<text x="28" y="186" textLength="772.8" lengthAdjust="spacingAndGlyphs" fill="#475569" style="animation-delay:0.24s" class="ln">|=========================================|========================|=======================|</text>
<text x="28" y="207" textLength="772.8" lengthAdjust="spacingAndGlyphs" fill="#047857" style="animation-delay:0.28s" class="ln">|   0  KIRAN-B200 SXM                On   | 00000000:GH:00.0    On |  0 (hallucinations)   |</text>
<text x="28" y="228" textLength="772.8" lengthAdjust="spacingAndGlyphs" fill="#047857" style="animation-delay:0.32s" class="ln">| 33%  1d     P0           20W / 1000W    |          9 / 100 repos |     1%     Default    |</text>
<text x="28" y="249" textLength="772.8" lengthAdjust="spacingAndGlyphs" fill="#475569" style="animation-delay:0.36s" class="ln">+-----------------------------------------+------------------------+-----------------------+</text>

<text x="28" y="291" textLength="772.8" lengthAdjust="spacingAndGlyphs" fill="#475569" style="animation-delay:0.44s" class="ln">+------------------------------------------------------------------------------------------+</text>
<text x="28" y="312" textLength="772.8" lengthAdjust="spacingAndGlyphs" fill="#0f172a" style="animation-delay:0.48s" class="ln">| Processes:                                                                               |</text>
<text x="28" y="333" textLength="772.8" lengthAdjust="spacingAndGlyphs" fill="#475569" style="animation-delay:0.52s" class="ln">|  GPU   PID   Type   Process name                                Lang          Last push  |</text>
<text x="28" y="354" textLength="772.8" lengthAdjust="spacingAndGlyphs" fill="#475569" style="animation-delay:0.56s" class="ln">|==========================================================================================|</text>
<text x="28" y="375" textLength="772.8" lengthAdjust="spacingAndGlyphs" fill="#0079a3" style="animation-delay:0.60s" class="ln">|    0   3189     C   FriendyKiran/FriendyKiran                   JavaScript    today      |</text>
<text x="28" y="396" textLength="772.8" lengthAdjust="spacingAndGlyphs" fill="#0079a3" style="animation-delay:0.64s" class="ln">|    0  89657     C   FriendyKiran/portfolio                      HTML          today      |</text>
<text x="28" y="417" textLength="772.8" lengthAdjust="spacingAndGlyphs" fill="#0079a3" style="animation-delay:0.68s" class="ln">|    0   8322     C   FriendyKiran/Exoplanet-Discovery-using-Mac  Jupyter       11mo ago   |</text>
<text x="28" y="438" textLength="772.8" lengthAdjust="spacingAndGlyphs" fill="#0079a3" style="animation-delay:0.72s" class="ln">|    0  37221     C   FriendyKiran/Chatbot-and-RAG                —             1y ago     |</text>
<text x="28" y="459" textLength="772.8" lengthAdjust="spacingAndGlyphs" fill="#0079a3" style="animation-delay:0.76s" class="ln">|    0  14299     C   FriendyKiran/Fetal_Health_Classification    Jupyter       2y ago     |</text>
<text x="28" y="480" textLength="772.8" lengthAdjust="spacingAndGlyphs" fill="#475569" style="animation-delay:0.80s" class="ln">+------------------------------------------------------------------------------------------+</text>
<text x="28" y="521" font-size="12" fill="#0f172a">GPU-Util history · commits per week, last 52 weeks · 4 contributions · 3★ · 1 follower</text>
<rect x="29" y="619" width="12.9" height="2" rx="1.5" fill="#d8e1eb" fill-opacity="1" class="bar" style="animation-delay:0.60s"/><rect x="43.9" y="531" width="12.9" height="90" rx="1.5" fill="#0079a3" fill-opacity="1.00" class="bar" style="animation-delay:0.62s"/><rect x="58.7" y="619" width="12.9" height="2" rx="1.5" fill="#d8e1eb" fill-opacity="1" class="bar" style="animation-delay:0.64s"/><rect x="73.6" y="619" width="12.9" height="2" rx="1.5" fill="#d8e1eb" fill-opacity="1" class="bar" style="animation-delay:0.66s"/><rect x="88.5" y="619" width="12.9" height="2" rx="1.5" fill="#d8e1eb" fill-opacity="1" class="bar" style="animation-delay:0.68s"/><rect x="103.3" y="619" width="12.9" height="2" rx="1.5" fill="#d8e1eb" fill-opacity="1" class="bar" style="animation-delay:0.70s"/><rect x="118.2" y="619" width="12.9" height="2" rx="1.5" fill="#d8e1eb" fill-opacity="1" class="bar" style="animation-delay:0.72s"/><rect x="133.1" y="619" width="12.9" height="2" rx="1.5" fill="#d8e1eb" fill-opacity="1" class="bar" style="animation-delay:0.74s"/><rect x="147.9" y="619" width="12.9" height="2" rx="1.5" fill="#d8e1eb" fill-opacity="1" class="bar" style="animation-delay:0.76s"/><rect x="162.8" y="619" width="12.9" height="2" rx="1.5" fill="#d8e1eb" fill-opacity="1" class="bar" style="animation-delay:0.78s"/><rect x="177.7" y="619" width="12.9" height="2" rx="1.5" fill="#d8e1eb" fill-opacity="1" class="bar" style="animation-delay:0.80s"/><rect x="192.5" y="619" width="12.9" height="2" rx="1.5" fill="#d8e1eb" fill-opacity="1" class="bar" style="animation-delay:0.82s"/><rect x="207.4" y="619" width="12.9" height="2" rx="1.5" fill="#d8e1eb" fill-opacity="1" class="bar" style="animation-delay:0.84s"/><rect x="222.3" y="619" width="12.9" height="2" rx="1.5" fill="#d8e1eb" fill-opacity="1" class="bar" style="animation-delay:0.86s"/><rect x="237.1" y="619" width="12.9" height="2" rx="1.5" fill="#d8e1eb" fill-opacity="1" class="bar" style="animation-delay:0.88s"/><rect x="252" y="619" width="12.9" height="2" rx="1.5" fill="#d8e1eb" fill-opacity="1" class="bar" style="animation-delay:0.90s"/><rect x="266.8" y="619" width="12.9" height="2" rx="1.5" fill="#d8e1eb" fill-opacity="1" class="bar" style="animation-delay:0.92s"/><rect x="281.7" y="619" width="12.9" height="2" rx="1.5" fill="#d8e1eb" fill-opacity="1" class="bar" style="animation-delay:0.94s"/><rect x="296.6" y="619" width="12.9" height="2" rx="1.5" fill="#d8e1eb" fill-opacity="1" class="bar" style="animation-delay:0.96s"/><rect x="311.4" y="619" width="12.9" height="2" rx="1.5" fill="#d8e1eb" fill-opacity="1" class="bar" style="animation-delay:0.98s"/><rect x="326.3" y="619" width="12.9" height="2" rx="1.5" fill="#d8e1eb" fill-opacity="1" class="bar" style="animation-delay:1.00s"/><rect x="341.2" y="619" width="12.9" height="2" rx="1.5" fill="#d8e1eb" fill-opacity="1" class="bar" style="animation-delay:1.02s"/><rect x="356" y="619" width="12.9" height="2" rx="1.5" fill="#d8e1eb" fill-opacity="1" class="bar" style="animation-delay:1.04s"/><rect x="370.9" y="619" width="12.9" height="2" rx="1.5" fill="#d8e1eb" fill-opacity="1" class="bar" style="animation-delay:1.06s"/><rect x="385.8" y="619" width="12.9" height="2" rx="1.5" fill="#d8e1eb" fill-opacity="1" class="bar" style="animation-delay:1.08s"/><rect x="400.6" y="619" width="12.9" height="2" rx="1.5" fill="#d8e1eb" fill-opacity="1" class="bar" style="animation-delay:1.10s"/><rect x="415.5" y="619" width="12.9" height="2" rx="1.5" fill="#d8e1eb" fill-opacity="1" class="bar" style="animation-delay:1.12s"/><rect x="430.4" y="619" width="12.9" height="2" rx="1.5" fill="#d8e1eb" fill-opacity="1" class="bar" style="animation-delay:1.14s"/><rect x="445.2" y="619" width="12.9" height="2" rx="1.5" fill="#d8e1eb" fill-opacity="1" class="bar" style="animation-delay:1.16s"/><rect x="460.1" y="619" width="12.9" height="2" rx="1.5" fill="#d8e1eb" fill-opacity="1" class="bar" style="animation-delay:1.18s"/><rect x="475" y="619" width="12.9" height="2" rx="1.5" fill="#d8e1eb" fill-opacity="1" class="bar" style="animation-delay:1.20s"/><rect x="489.8" y="619" width="12.9" height="2" rx="1.5" fill="#d8e1eb" fill-opacity="1" class="bar" style="animation-delay:1.22s"/><rect x="504.7" y="619" width="12.9" height="2" rx="1.5" fill="#d8e1eb" fill-opacity="1" class="bar" style="animation-delay:1.24s"/><rect x="519.6" y="619" width="12.9" height="2" rx="1.5" fill="#d8e1eb" fill-opacity="1" class="bar" style="animation-delay:1.26s"/><rect x="534.4" y="619" width="12.9" height="2" rx="1.5" fill="#d8e1eb" fill-opacity="1" class="bar" style="animation-delay:1.28s"/><rect x="549.3" y="619" width="12.9" height="2" rx="1.5" fill="#d8e1eb" fill-opacity="1" class="bar" style="animation-delay:1.30s"/><rect x="564.2" y="619" width="12.9" height="2" rx="1.5" fill="#d8e1eb" fill-opacity="1" class="bar" style="animation-delay:1.32s"/><rect x="579" y="619" width="12.9" height="2" rx="1.5" fill="#d8e1eb" fill-opacity="1" class="bar" style="animation-delay:1.34s"/><rect x="593.9" y="619" width="12.9" height="2" rx="1.5" fill="#d8e1eb" fill-opacity="1" class="bar" style="animation-delay:1.36s"/><rect x="608.8" y="619" width="12.9" height="2" rx="1.5" fill="#d8e1eb" fill-opacity="1" class="bar" style="animation-delay:1.38s"/><rect x="623.6" y="619" width="12.9" height="2" rx="1.5" fill="#d8e1eb" fill-opacity="1" class="bar" style="animation-delay:1.40s"/><rect x="638.5" y="619" width="12.9" height="2" rx="1.5" fill="#d8e1eb" fill-opacity="1" class="bar" style="animation-delay:1.42s"/><rect x="653.3" y="619" width="12.9" height="2" rx="1.5" fill="#d8e1eb" fill-opacity="1" class="bar" style="animation-delay:1.44s"/><rect x="668.2" y="619" width="12.9" height="2" rx="1.5" fill="#d8e1eb" fill-opacity="1" class="bar" style="animation-delay:1.46s"/><rect x="683.1" y="619" width="12.9" height="2" rx="1.5" fill="#d8e1eb" fill-opacity="1" class="bar" style="animation-delay:1.48s"/><rect x="697.9" y="619" width="12.9" height="2" rx="1.5" fill="#d8e1eb" fill-opacity="1" class="bar" style="animation-delay:1.50s"/><rect x="712.8" y="619" width="12.9" height="2" rx="1.5" fill="#d8e1eb" fill-opacity="1" class="bar" style="animation-delay:1.52s"/><rect x="727.7" y="619" width="12.9" height="2" rx="1.5" fill="#d8e1eb" fill-opacity="1" class="bar" style="animation-delay:1.54s"/><rect x="742.5" y="619" width="12.9" height="2" rx="1.5" fill="#d8e1eb" fill-opacity="1" class="bar" style="animation-delay:1.56s"/><rect x="757.4" y="619" width="12.9" height="2" rx="1.5" fill="#d8e1eb" fill-opacity="1" class="bar" style="animation-delay:1.58s"/><rect x="772.3" y="619" width="12.9" height="2" rx="1.5" fill="#d8e1eb" fill-opacity="1" class="bar" style="animation-delay:1.60s"/><rect x="787.1" y="531" width="12.9" height="90" rx="1.5" fill="#0079a3" fill-opacity="1.00" class="bar" style="animation-delay:1.62s"/>
<text x="28" y="655" font-size="12" fill="#0f172a">Memory by language</text>
<rect x="28" y="665" width="722.2" height="10" rx="3" fill="#DA5B0B"/><rect x="752.2" y="665" width="26.6" height="10" rx="3" fill="#e34c26"/><rect x="780.8" y="665" width="8.5" height="10" rx="3" fill="#f1e05a"/><rect x="791.4" y="665" width="7.6" height="10" rx="3" fill="#3572A5"/><circle cx="33" cy="695" r="5" fill="#DA5B0B"/><text x="43" y="699" font-size="12" fill="#475569">Jupyter Notebook 93.7%</text><circle cx="229.8" cy="695" r="5" fill="#e34c26"/><text x="239.8" y="699" font-size="12" fill="#475569">HTML 3.7%</text><circle cx="330.4" cy="695" r="5" fill="#f1e05a"/><text x="340.4" y="699" font-size="12" fill="#475569">JavaScript 1.4%</text><circle cx="475.4" cy="695" r="5" fill="#3572A5"/><text x="485.4" y="699" font-size="12" fill="#475569">Python 1.2%</text>
</svg>
